<mxfile host="app.diagrams.net" modified="2023-09-04T22:56:36.305Z" agent="Mozilla/5.0 (X11; Linux x86_64; rv:102.0) Gecko/20100101 Firefox/102.0" etag="BPvrrNoH0tsR5qAYZUJY" version="21.7.2" type="github">
  <diagram name="Page-1" id="f2ksHqzynZiv-x71XW-W">
    <mxGraphModel dx="533" dy="1043" grid="1" gridSize="10" guides="1" tooltips="1" connect="1" arrows="1" fold="1" page="1" pageScale="1" pageWidth="850" pageHeight="1100" math="0" shadow="0">
      <root>
        <mxCell id="0" />
        <mxCell id="1" parent="0" />
        <mxCell id="K4xuWBSH_M56VS-duhzM-1" value="Historical&#xa;TRDW1" style="whiteSpace=wrap;strokeWidth=2;" vertex="1" parent="1">
          <mxGeometry x="220" y="100" width="72" height="33" as="geometry" />
        </mxCell>
        <mxCell id="K4xuWBSH_M56VS-duhzM-2" value="Before&lt;br&gt;APR 1&lt;br&gt;2022" style="edgeStyle=orthogonalEdgeStyle;rounded=0;orthogonalLoop=1;jettySize=auto;html=1;exitX=1;exitY=0.5;exitDx=0;exitDy=0;" edge="1" source="K4xuWBSH_M56VS-duhzM-3" target="K4xuWBSH_M56VS-duhzM-1" parent="1">
          <mxGeometry relative="1" as="geometry" />
        </mxCell>
        <mxCell id="K4xuWBSH_M56VS-duhzM-3" value="Soarian" style="whiteSpace=wrap;strokeWidth=2;" vertex="1" parent="1">
          <mxGeometry x="80" y="100" width="70" height="33" as="geometry" />
        </mxCell>
        <mxCell id="K4xuWBSH_M56VS-duhzM-4" value="Stiched&#xa;TRDW" style="whiteSpace=wrap;strokeWidth=2;" vertex="1" parent="1">
          <mxGeometry x="360" y="130" width="63" height="33" as="geometry" />
        </mxCell>
        <mxCell id="K4xuWBSH_M56VS-duhzM-5" value="After&lt;br&gt;&lt;div&gt;APR 1&lt;/div&gt;&lt;div&gt;2022&lt;br&gt;&lt;/div&gt;" style="edgeStyle=orthogonalEdgeStyle;rounded=0;orthogonalLoop=1;jettySize=auto;html=1;exitX=1;exitY=0.5;exitDx=0;exitDy=0;" edge="1" source="K4xuWBSH_M56VS-duhzM-6" target="K4xuWBSH_M56VS-duhzM-7" parent="1">
          <mxGeometry relative="1" as="geometry" />
        </mxCell>
        <mxCell id="K4xuWBSH_M56VS-duhzM-6" value="Epic" style="whiteSpace=wrap;strokeWidth=2;" vertex="1" parent="1">
          <mxGeometry x="80" y="151.5" width="70" height="33" as="geometry" />
        </mxCell>
        <mxCell id="K4xuWBSH_M56VS-duhzM-7" value="New&#xa;TRDW2" style="whiteSpace=wrap;strokeWidth=2;" vertex="1" parent="1">
          <mxGeometry x="220" y="151.5" width="72" height="33" as="geometry" />
        </mxCell>
        <mxCell id="K4xuWBSH_M56VS-duhzM-8" style="edgeStyle=orthogonalEdgeStyle;rounded=0;orthogonalLoop=1;jettySize=auto;html=1;exitX=0.972;exitY=0.5;exitDx=0;exitDy=0;entryX=0;entryY=0.5;entryDx=0;entryDy=0;exitPerimeter=0;" edge="1" source="K4xuWBSH_M56VS-duhzM-7" target="K4xuWBSH_M56VS-duhzM-4" parent="1">
          <mxGeometry relative="1" as="geometry">
            <mxPoint x="295" y="167.5" as="sourcePoint" />
            <mxPoint x="375" y="167.5" as="targetPoint" />
          </mxGeometry>
        </mxCell>
        <mxCell id="K4xuWBSH_M56VS-duhzM-9" style="edgeStyle=orthogonalEdgeStyle;rounded=0;orthogonalLoop=1;jettySize=auto;html=1;exitX=1;exitY=0.5;exitDx=0;exitDy=0;entryX=0;entryY=0.5;entryDx=0;entryDy=0;" edge="1" source="K4xuWBSH_M56VS-duhzM-1" target="K4xuWBSH_M56VS-duhzM-4" parent="1">
          <mxGeometry relative="1" as="geometry">
            <mxPoint x="300" y="178" as="sourcePoint" />
            <mxPoint x="370" y="153" as="targetPoint" />
          </mxGeometry>
        </mxCell>
        <mxCell id="K4xuWBSH_M56VS-duhzM-10" value="Simple&lt;br&gt;Merge" style="edgeLabel;html=1;align=center;verticalAlign=middle;resizable=0;points=[];" vertex="1" connectable="0" parent="K4xuWBSH_M56VS-duhzM-9">
          <mxGeometry x="-0.1939" y="1" relative="1" as="geometry">
            <mxPoint y="1" as="offset" />
          </mxGeometry>
        </mxCell>
      </root>
    </mxGraphModel>
  </diagram>
</mxfile>
